<svg xmlns="http://www.w3.org/2000/svg" viewBox="0 0 292 64" role="img" aria-labelledby="title desc">
  <title id="title">Strawberry Aviation Supply</title>
  <desc id="desc">A strawberry and aircraft wing symbol followed by the company name.</desc>
  <g transform="translate(0 0)">
    <path fill="#10233f" d="M20 16 13 5c7-1 13 3 17 9L32 2l2 12c4-6 10-10 17-9l-7 11z"/>
    <path fill="#c9364f" d="M32 13c16 0 26 10 24 24-2 12-13 22-24 27C21 59 10 49 8 37 6 23 16 13 32 13z"/>
    <path fill="#7e2438" d="M32 60c10-5 19-14 22-24-7 7-16 12-27 16z"/>
    <path fill="#fff" d="M12 40c15-2 29-7 43-17-6 11-17 19-32 24l9 1-8 4z"/>
  </g>
  <text x="74" y="30" fill="#10233f" font-family="Arial, Helvetica, sans-serif" font-size="22" font-weight="700" letter-spacing=".8">STRAWBERRY</text>
  <text x="75" y="49" fill="#c9364f" font-family="Arial, Helvetica, sans-serif" font-size="12" font-weight="700" letter-spacing="3.2">AVIATION SUPPLY</text>
</svg>
